<svg width="85" height="18" viewBox="0 0 85 18" fill="none" xmlns="http://www.w3.org/2000/svg">
<path d="M0.0234375 13L2.5625 0.03125L6.70312 9.40625L10.9922 0.03125L13.2734 13H11.4062L10.2422 5.71875L6.67188 13.5547L3.20312 5.71094L1.90625 13H0.0234375ZM17.6562 5.75L22.3516 0.9375H24.7812L19.3281 6.39844L24.8125 13H22.375L18.0312 7.63281L17.6562 8.00781V13H15.8359V0.9375H17.6562V5.75ZM33.2031 8.10156V13H31.3828V0.9375H33.4453C34.4557 0.9375 35.2188 1.00781 35.7344 1.14844C36.2552 1.28906 36.7135 1.55469 37.1094 1.94531C37.8021 2.6224 38.1484 3.47656 38.1484 4.50781C38.1484 5.61198 37.7786 6.48698 37.0391 7.13281C36.2995 7.77865 35.3021 8.10156 34.0469 8.10156H33.2031ZM33.2031 6.41406H33.8828C35.5547 6.41406 36.3906 5.77083 36.3906 4.48438C36.3906 3.23958 35.5286 2.61719 33.8047 2.61719H33.2031V6.41406ZM39.6875 5.39062H41.4453V6.07031C41.7682 5.73177 42.0547 5.5 42.3047 5.375C42.5599 5.24479 42.862 5.17969 43.2109 5.17969C43.6745 5.17969 44.1589 5.33073 44.6641 5.63281L43.8594 7.24219C43.526 7.0026 43.2005 6.88281 42.8828 6.88281C41.9245 6.88281 41.4453 7.60677 41.4453 9.05469V13H39.6875V5.39062ZM45.1719 9.14062C45.1719 8.04167 45.5651 7.10677 46.3516 6.33594C47.138 5.5651 48.0964 5.17969 49.2266 5.17969C50.362 5.17969 51.3255 5.56771 52.1172 6.34375C52.8984 7.11979 53.2891 8.07292 53.2891 9.20312C53.2891 10.3438 52.8958 11.2995 52.1094 12.0703C51.3177 12.8359 50.3464 13.2188 49.1953 13.2188C48.0547 13.2188 47.099 12.8281 46.3281 12.0469C45.5573 11.276 45.1719 10.3073 45.1719 9.14062ZM46.9688 9.17188C46.9688 9.93229 47.1719 10.5339 47.5781 10.9766C47.9948 11.4245 48.5443 11.6484 49.2266 11.6484C49.9141 11.6484 50.4635 11.4271 50.875 10.9844C51.2865 10.5417 51.4922 9.95052 51.4922 9.21094C51.4922 8.47135 51.2865 7.88021 50.875 7.4375C50.4583 6.98958 49.9089 6.76562 49.2266 6.76562C48.5547 6.76562 48.0104 6.98958 47.5938 7.4375C47.1771 7.88542 46.9688 8.46354 46.9688 9.17188ZM56.9141 5.39062V17.1406H55.1562V5.39062H56.9141ZM54.8906 2.22656C54.8906 1.91927 55.0026 1.65365 55.2266 1.42969C55.4505 1.20573 55.7188 1.09375 56.0312 1.09375C56.349 1.09375 56.6198 1.20573 56.8438 1.42969C57.0677 1.64844 57.1797 1.91667 57.1797 2.23438C57.1797 2.55208 57.0677 2.82292 56.8438 3.04688C56.625 3.27083 56.3568 3.38281 56.0391 3.38281C55.7214 3.38281 55.4505 3.27083 55.2266 3.04688C55.0026 2.82292 54.8906 2.54948 54.8906 2.22656ZM66.0703 9.60938H60.6172C60.6641 10.2344 60.8672 10.7318 61.2266 11.1016C61.5859 11.4661 62.0469 11.6484 62.6094 11.6484C63.0469 11.6484 63.4089 11.5443 63.6953 11.3359C63.9766 11.1276 64.2969 10.7422 64.6562 10.1797L66.1406 11.0078C65.9115 11.3984 65.6693 11.7344 65.4141 12.0156C65.1589 12.2917 64.8854 12.5208 64.5938 12.7031C64.3021 12.8802 63.987 13.0104 63.6484 13.0938C63.3099 13.1771 62.9427 13.2188 62.5469 13.2188C61.4115 13.2188 60.5 12.8542 59.8125 12.125C59.125 11.3906 58.7812 10.4167 58.7812 9.20312C58.7812 8 59.1146 7.02604 59.7812 6.28125C60.4531 5.54688 61.3438 5.17969 62.4531 5.17969C63.5729 5.17969 64.4583 5.53646 65.1094 6.25C65.7552 6.95833 66.0781 7.9401 66.0781 9.19531L66.0703 9.60938ZM64.2656 8.17188C64.0208 7.23438 63.4297 6.76562 62.4922 6.76562C62.2786 6.76562 62.0781 6.79948 61.8906 6.86719C61.7031 6.92969 61.5312 7.02344 61.375 7.14844C61.224 7.26823 61.0938 7.41406 60.9844 7.58594C60.875 7.75781 60.7917 7.95312 60.7344 8.17188H64.2656ZM73.9219 5.71875V8.05469C73.5208 7.5651 73.1615 7.22917 72.8438 7.04688C72.5312 6.85938 72.1641 6.76562 71.7422 6.76562C71.0807 6.76562 70.5312 6.9974 70.0938 7.46094C69.6562 7.92448 69.4375 8.50521 69.4375 9.20312C69.4375 9.91667 69.6484 10.5026 70.0703 10.9609C70.4974 11.4193 71.0417 11.6484 71.7031 11.6484C72.125 11.6484 72.4974 11.5573 72.8203 11.375C73.1328 11.1979 73.5 10.8542 73.9219 10.3438V12.6641C73.2083 13.0339 72.4948 13.2188 71.7812 13.2188C70.6042 13.2188 69.6198 12.8385 68.8281 12.0781C68.0365 11.3125 67.6406 10.362 67.6406 9.22656C67.6406 8.09115 68.0417 7.13281 68.8438 6.35156C69.6458 5.57031 70.6302 5.17969 71.7969 5.17969C72.5469 5.17969 73.2552 5.35938 73.9219 5.71875ZM77.4375 7.03125V13H75.6797V7.03125H74.9297V5.39062H75.6797V2.60156H77.4375V5.39062H78.8047V7.03125H77.4375ZM84.4219 6.6875L82.9688 7.46094C82.7396 6.99219 82.4557 6.75781 82.1172 6.75781C81.9557 6.75781 81.8177 6.8125 81.7031 6.92188C81.5885 7.02604 81.5312 7.16146 81.5312 7.32812C81.5312 7.61979 81.8698 7.90885 82.5469 8.19531C83.4792 8.59635 84.1068 8.96615 84.4297 9.30469C84.7526 9.64323 84.9141 10.099 84.9141 10.6719C84.9141 11.4062 84.6432 12.0208 84.1016 12.5156C83.5755 12.9844 82.9401 13.2188 82.1953 13.2188C80.9193 13.2188 80.0156 12.5964 79.4844 11.3516L80.9844 10.6562C81.1927 11.0208 81.3516 11.2526 81.4609 11.3516C81.6745 11.5495 81.9297 11.6484 82.2266 11.6484C82.8203 11.6484 83.1172 11.3776 83.1172 10.8359C83.1172 10.5234 82.888 10.2318 82.4297 9.96094C82.2526 9.8724 82.0755 9.78646 81.8984 9.70312C81.7214 9.61979 81.5417 9.53385 81.3594 9.44531C80.849 9.19531 80.4896 8.94531 80.2812 8.69531C80.0156 8.3776 79.8828 7.96875 79.8828 7.46875C79.8828 6.80729 80.1094 6.26042 80.5625 5.82812C81.026 5.39583 81.5885 5.17969 82.25 5.17969C83.224 5.17969 83.9479 5.68229 84.4219 6.6875Z" fill="white"/>
</svg>
