<svg width="45" height="45" viewBox="0 0 45 45" fill="none" xmlns="http://www.w3.org/2000/svg">
<circle cx="22.5" cy="23.5" r="12.5" fill="#F3EBDB"/>
<path d="M40.8526 27.9176C40.7115 28.444 40.2675 29.0304 39.2423 29.5685C38.2151 30.1077 36.7426 30.5179 34.8726 30.725C31.1427 31.1379 26.1522 30.7079 20.8177 29.2785C15.4831 27.8491 10.9463 25.7263 7.92254 23.5037C6.40662 22.3894 5.33644 21.2979 4.7165 20.3174C4.09768 19.3387 4.00634 18.6089 4.14741 18.0824C4.28848 17.556 4.73246 16.9696 5.75774 16.4314C6.78486 15.8923 8.25744 15.4821 10.1274 15.275C13.8573 14.8621 18.8478 15.2921 24.1823 16.7215C29.5169 18.1509 34.0537 20.2737 37.0775 22.4963C38.5934 23.6106 39.6636 24.7021 40.2835 25.6826C40.9023 26.6613 40.9937 27.3911 40.8526 27.9176Z" stroke="#F3EBDB" stroke-width="3"/>
</svg>
